<?xml version="1.0" encoding="UTF-8"?>
<svg version="1.1" xmlns="http://www.w3.org/2000/svg" width="512" height="512">
<path d="M0 0 C1.01790619 0.00215515 2.03581238 0.0043103 3.08456421 0.00653076 C17.69363523 0.05620146 32.02575853 0.30709809 46.375 3.3125 C47.34985352 3.51117676 48.32470703 3.70985352 49.32910156 3.91455078 C88.37782454 12.08284366 124.83813271 27.70153311 156.375 52.3125 C157.27089844 52.99699219 158.16679687 53.68148437 159.08984375 54.38671875 C174.64561709 66.50203669 189.29582193 80.73146847 201.375 96.3125 C202.14972656 97.27027344 202.92445313 98.22804688 203.72265625 99.21484375 C238.26056965 142.61986011 256.81394766 197.76289597 256.69067383 253.03979492 C256.6875221 255.97938487 256.71104926 258.9179558 256.73632812 261.85742188 C256.78098737 275.23056192 255.57551542 288.12666711 253.375 301.3125 C253.09281616 303.01805054 253.09281616 303.01805054 252.80493164 304.75805664 C245.77946967 343.86954746 228.79665906 381.05202178 204.375 412.3125 C203.61574219 413.28445313 202.85648437 414.25640625 202.07421875 415.2578125 C189.73986402 430.63741644 175.93895499 445.19015196 160.375 457.3125 C159.43914062 458.07691406 158.50328125 458.84132813 157.5390625 459.62890625 C125.58628299 485.2157721 86.41988322 501.72551276 46.375 509.3125 C45.56562988 509.47621094 44.75625977 509.63992188 43.92236328 509.80859375 C13.88110013 515.67977137 -20.7615176 514.58512909 -50.625 508.3125 C-52.14794678 507.99901611 -52.14794678 507.99901611 -53.70166016 507.67919922 C-90.84546555 499.78695344 -125.70945445 483.68345578 -155.625 460.3125 C-156.59695312 459.55324219 -157.56890625 458.79398437 -158.5703125 458.01171875 C-173.94991644 445.67736402 -188.50265196 431.87645499 -200.625 416.3125 C-201.77162109 414.90871094 -201.77162109 414.90871094 -202.94140625 413.4765625 C-228.5282721 381.52378299 -245.03801276 342.35738322 -252.625 302.3125 C-252.78871094 301.50312988 -252.95242187 300.69375977 -253.12109375 299.85986328 C-258.59069558 271.87335724 -258.46977511 238.21828161 -252.625 210.3125 C-252.42632324 209.33764648 -252.22764648 208.36279297 -252.02294922 207.35839844 C-241.93598313 159.13741149 -219.89911449 114.53770064 -185.40722656 79.14160156 C-183.63301167 77.32072238 -181.87518486 75.48496071 -180.1171875 73.6484375 C-173.01562574 66.30860161 -165.60158994 59.73928631 -157.40917969 53.64355469 C-155.59628085 52.2910746 -153.80174757 50.91656557 -152.0078125 49.5390625 C-143.60124472 43.15234877 -134.85975388 37.61076633 -125.65234375 32.45166016 C-123.78933792 31.40484113 -121.94116361 30.33571119 -120.09375 29.26171875 C-83.4933446 8.69459905 -41.63834482 -0.15855121 0 0 Z " fill="#2196F3" transform="translate(255.625,-0.3125)"/>
<path d="M0 0 C4.90205341 4.34500189 8.70817563 8.27698917 9.12304783 14.99145889 C9.12212604 15.69570873 9.12120424 16.39995857 9.12025452 17.12554932 C9.12231651 18.34543549 9.12231651 18.34543549 9.12442017 19.58996582 C9.12082489 20.47325562 9.11722961 21.35654541 9.11352539 22.26660156 C9.11367142 23.20352844 9.11381744 24.14045532 9.1139679 25.10577393 C9.11327157 28.20074788 9.10549223 31.29566156 9.09765625 34.390625 C9.09579108 36.53725146 9.09436764 38.68387834 9.09336853 40.83050537 C9.08955118 46.47921932 9.07972754 52.12790754 9.06866455 57.77661133 C9.05843364 63.54117484 9.0538673 69.30574252 9.04882812 75.0703125 C9.0381046 86.38021963 9.02103753 97.69010768 9 109 C10.18715103 108.99333817 11.37430206 108.98667633 12.59742737 108.97981262 C23.7942041 108.91895404 34.9909472 108.87400449 46.18785191 108.84456348 C51.9440711 108.82891867 57.70015658 108.80770176 63.45629883 108.77368164 C69.01300811 108.74104636 74.56958891 108.72313807 80.12638664 108.71536827 C82.24463867 108.70983228 84.36288379 108.69902184 86.48108101 108.68280983 C89.4518151 108.66098043 92.42202066 108.65803542 95.39282227 108.65942383 C96.26532623 108.648638 97.1378302 108.63785217 98.03677368 108.6267395 C104.79775404 108.66085116 109.54959147 109.82804698 114.75 114.4375 C120.07349053 120.50036422 121.32141816 124.41646107 121.21484375 132.46875 C120.57720169 139.98133277 116.40520415 144.11073588 110.9375 148.75 C107.72901473 150.8199905 104.63501236 151.12517672 100.87445068 151.12025452 C100.06119324 151.12162918 99.24793579 151.12300385 98.41003418 151.12442017 C97.52674438 151.12082489 96.64345459 151.11722961 95.73339844 151.11352539 C94.79647156 151.11367142 93.85954468 151.11381744 92.89422607 151.1139679 C89.79925212 151.11327157 86.70433844 151.10549223 83.609375 151.09765625 C81.46274854 151.09579108 79.31612166 151.09436764 77.16949463 151.09336853 C71.52078068 151.08955118 65.87209246 151.07972754 60.22338867 151.06866455 C54.45882516 151.05843364 48.69425748 151.0538673 42.9296875 151.04882812 C31.61978037 151.0381046 20.30989232 151.02103753 9 151 C9.00999275 152.78072655 9.00999275 152.78072655 9.02018738 154.59742737 C9.08104596 165.7942041 9.12599551 176.9909472 9.15543652 188.18785191 C9.17108133 193.9440711 9.19229824 199.70015658 9.22631836 205.45629883 C9.25895364 211.01300811 9.27686193 216.56958891 9.28463173 222.12638664 C9.29016772 224.24463867 9.30097816 226.36288379 9.31719017 228.48108101 C9.33901957 231.4518151 9.34196458 234.42202066 9.34057617 237.39282227 C9.351362 238.26532623 9.36214783 239.1378302 9.3732605 240.03677368 C9.33914884 246.79775404 8.17195302 251.54959147 3.5625 256.75 C-2.50325163 262.07602582 -6.41538491 263.31349547 -14.46875 263.21875 C-20.26850644 262.71753648 -24.7942083 259.97213661 -29 256 C-32.00393114 251.7086698 -33.12705345 248.06883957 -33.12025452 242.87445068 C-33.12162918 242.06119324 -33.12300385 241.24793579 -33.12442017 240.41003418 C-33.11902725 239.08509949 -33.11902725 239.08509949 -33.11352539 237.73339844 C-33.11367142 236.79647156 -33.11381744 235.85954468 -33.1139679 234.89422607 C-33.11327157 231.79925212 -33.10549223 228.70433844 -33.09765625 225.609375 C-33.09579108 223.46274854 -33.09436764 221.31612166 -33.09336853 219.16949463 C-33.08955118 213.52078068 -33.07972754 207.87209246 -33.06866455 202.22338867 C-33.05843364 196.45882516 -33.0538673 190.69425748 -33.04882812 184.9296875 C-33.0381046 173.61978037 -33.02103753 162.30989232 -33 151 C-34.18715103 151.00666183 -35.37430206 151.01332367 -36.59742737 151.02018738 C-47.7942041 151.08104596 -58.9909472 151.12599551 -70.18785191 151.15543652 C-75.9440711 151.17108133 -81.70015658 151.19229824 -87.45629883 151.22631836 C-93.01300811 151.25895364 -98.56958891 151.27686193 -104.12638664 151.28463173 C-106.24463867 151.29016772 -108.36288379 151.30097816 -110.48108101 151.31719017 C-113.4518151 151.33901957 -116.42202066 151.34196458 -119.39282227 151.34057617 C-120.26532623 151.351362 -121.1378302 151.36214783 -122.03677368 151.3732605 C-129.6725938 151.33473495 -135.31739985 149.36690014 -141 144 C-145.19720814 138.00398838 -145.6190881 132.16373372 -145 125 C-143.50750607 119.29340557 -140.32154086 114.6250786 -135.5 111.25 C-131.92312112 109.46156056 -128.85444269 108.87453607 -124.87445068 108.87974548 C-123.65456451 108.87768349 -123.65456451 108.87768349 -122.41003418 108.87557983 C-121.52674438 108.87917511 -120.64345459 108.88277039 -119.73339844 108.88647461 C-118.32800812 108.88625557 -118.32800812 108.88625557 -116.89422607 108.8860321 C-113.79925212 108.88672843 -110.70433844 108.89450777 -107.609375 108.90234375 C-105.46274854 108.90420892 -103.31612166 108.90563236 -101.16949463 108.90663147 C-95.52078068 108.91044882 -89.87209246 108.92027246 -84.22338867 108.93133545 C-78.45882516 108.94156636 -72.69425748 108.9461327 -66.9296875 108.95117188 C-55.61978037 108.9618954 -44.30989232 108.97896247 -33 109 C-33.00999275 107.21927345 -33.00999275 107.21927345 -33.02018738 105.40257263 C-33.08104596 94.2057959 -33.12599551 83.0090528 -33.15543652 71.81214809 C-33.17108133 66.0559289 -33.19229824 60.29984342 -33.22631836 54.54370117 C-33.25895364 48.98699189 -33.27686193 43.43041109 -33.28463173 37.87361336 C-33.29016772 35.75536133 -33.30097816 33.63711621 -33.31719017 31.51891899 C-33.33901957 28.5481849 -33.34196458 25.57797934 -33.34057617 22.60717773 C-33.351362 21.73467377 -33.36214783 20.8621698 -33.3732605 19.96322632 C-33.33473495 12.3274062 -31.36690014 6.68260015 -26 1 C-18.15880387 -4.48883729 -8.30714293 -4.72366951 0 0 Z " fill="#F9F9F9" transform="translate(268,126)"/>
</svg>
