<?xml version="1.0" encoding="UTF-8"?>
<svg version="1.1" xmlns="http://www.w3.org/2000/svg" width="512" height="512">
<path d="M0 0 C1.27033805 0.13021042 2.5406761 0.26042084 3.84950924 0.39457703 C26.79584677 2.77558021 49.70413582 5.53134851 72.61743164 8.20703125 C75.23560863 8.51251661 77.85378733 8.81798727 80.4719677 9.1234436 C91.34822273 10.39263196 102.2243082 11.66326163 113.09994602 12.93772888 C115.8913358 13.26481739 118.68272705 13.59189327 121.47412109 13.91894531 C122.16761081 14.00019909 122.86110053 14.08145287 123.57560509 14.16516888 C134.88582384 15.49007049 146.19717862 16.80500925 157.50901378 18.11603081 C169.18067102 19.46892389 180.85125838 20.83075289 192.52084965 22.20135403 C199.05080268 22.96795663 205.58116192 23.73059074 212.11270332 24.48355103 C218.22996444 25.18895999 224.34581197 25.90554179 230.46074486 26.63084793 C232.70447499 26.89499827 234.94869018 27.15506481 237.19339752 27.41077805 C240.25241715 27.75987992 243.30936118 28.12354388 246.3662262 28.4909668 C247.25724409 28.58912847 248.14826199 28.68729013 249.06628042 28.7884264 C254.79076771 29.49767555 258.6173977 30.71090356 262.80102539 34.89453125 C263.48027067 41.91339917 263.48027067 41.91339917 261.11352539 45.33203125 C258.80102539 46.89453125 258.80102539 46.89453125 256.17602539 47.33203125 C255.39227539 47.51765625 254.60852539 47.70328125 253.80102539 47.89453125 C252.51205339 49.93205896 252.51205339 49.93205896 251.80102539 52.89453125 C251.56134033 53.58385742 251.32165527 54.27318359 251.07470703 54.98339844 C248.90080048 61.48457828 248.29424473 67.37515671 248.36352539 74.20703125 C248.36747314 75.21088867 248.3714209 76.21474609 248.37548828 77.24902344 C248.52680182 85.09200279 249.76207869 91.62058654 252.80102539 98.89453125 C253.13102539 99.88453125 253.46102539 100.87453125 253.80102539 101.89453125 C256.13113448 102.57238117 258.46462363 103.23869918 260.80102539 103.89453125 C263.25445954 107.57468248 263.49929394 110.61871398 262.80102539 114.89453125 C261.11352539 117.33203125 261.11352539 117.33203125 258.80102539 118.89453125 C257.50165039 119.11109375 257.50165039 119.11109375 256.17602539 119.33203125 C255.39227539 119.51765625 254.60852539 119.70328125 253.80102539 119.89453125 C252.51205339 121.93205896 252.51205339 121.93205896 251.80102539 124.89453125 C251.56134033 125.58385742 251.32165527 126.27318359 251.07470703 126.98339844 C248.90080048 133.48457828 248.29424473 139.37515671 248.36352539 146.20703125 C248.36747314 147.21088867 248.3714209 148.21474609 248.37548828 149.24902344 C248.52680182 157.09200279 249.76207869 163.62058654 252.80102539 170.89453125 C253.13102539 171.88453125 253.46102539 172.87453125 253.80102539 173.89453125 C256.13113448 174.57238117 258.46462363 175.23869918 260.80102539 175.89453125 C263.2589315 179.58139041 263.48576681 182.61273049 262.80102539 186.89453125 C260.66020579 190.06294426 259.062593 190.80734205 255.42602539 192.01953125 C250.12684807 194.16416618 248.03322512 198.89466191 245.80102539 203.89453125 C241.78729424 215.53946462 240.59894558 226.15092175 240.55102539 238.39453125 C240.53040039 239.68101562 240.50977539 240.9675 240.48852539 242.29296875 C240.43043221 256.72912493 242.53524847 273.83907918 252.80102539 284.89453125 C255.07870917 286.23531916 255.07870917 286.23531916 257.48852539 287.08203125 C261.7057873 288.70405506 261.7057873 288.70405506 262.80102539 290.89453125 C263.38847178 298.1788665 263.38847178 298.1788665 261.11172485 300.95254517 C258.41522672 303.21876885 256.86601326 303.58328539 253.40405273 304.03662109 C252.3391864 304.18379578 251.27432007 304.33097046 250.17718506 304.48260498 C248.50598602 304.68650848 248.50598602 304.68650848 246.80102539 304.89453125 C245.72282532 305.03804016 244.64462524 305.18154907 243.53375244 305.32940674 C240.07572346 305.78168526 236.61513583 306.2048788 233.15258789 306.62109375 C231.8964267 306.77363617 230.6402655 306.92617859 229.34603882 307.08334351 C226.71253563 307.40230341 224.07892691 307.72014596 221.44506836 308.03613281 C218.08245832 308.43977295 214.72057566 308.84915923 211.35885048 309.2600956 C208.12383386 309.65461298 204.88817965 310.0438259 201.65258789 310.43359375 C200.45252106 310.5804361 199.25245422 310.72727844 198.01602173 310.87857056 C196.8940036 311.01226044 195.77198547 311.14595032 194.6159668 311.28369141 C193.14469833 311.46117416 193.14469833 311.46117416 191.64370728 311.64224243 C188.68136583 311.90515107 185.7734221 311.93757157 182.80102539 311.89453125 C182.82197266 312.93383789 182.84291992 313.97314453 182.86450195 315.04394531 C182.93698213 318.90529567 182.9828537 322.76658608 183.02075195 326.62841797 C183.04084932 328.29876827 183.06813222 329.96904838 183.1027832 331.63916016 C183.15138658 334.04216845 183.17401195 336.44424559 183.19165039 338.84765625 C183.21229553 339.59259338 183.23294067 340.33753052 183.25421143 341.1050415 C183.25569912 344.55401323 183.06378626 346.52989823 181.02270508 349.36230469 C178.35469906 351.20234928 176.10719223 351.41499877 172.89868164 351.5234375 C166.89423119 349.72322051 162.60903284 341.96575843 158.98852539 337.20703125 C158.39104492 336.43552734 157.79356445 335.66402344 157.17797852 334.86914062 C156.33203125 333.7621582 156.33203125 333.7621582 155.46899414 332.6328125 C154.69978638 331.627948 154.69978638 331.627948 153.91503906 330.6027832 C152.80102539 328.89453125 152.80102539 328.89453125 152.80102539 326.89453125 C152.14102539 326.89453125 151.48102539 326.89453125 150.80102539 326.89453125 C150.5405542 327.59811768 150.28008301 328.3017041 150.01171875 329.02661133 C147.95639319 333.89531658 145.12392666 338.31997669 142.40625 342.84301758 C141.3629414 344.5830052 140.33081027 346.32930479 139.29907227 348.07617188 C138.64100586 349.17509766 137.98293945 350.27402344 137.30493164 351.40625 C136.4049646 352.91384888 136.4049646 352.91384888 135.48681641 354.4519043 C133.80102539 356.89453125 133.80102539 356.89453125 130.80102539 358.89453125 C123.72917539 359.56804077 123.72917539 359.56804077 120.69824219 357.36865234 C118.08700876 353.96339697 118.29645288 350.95921603 118.41040039 346.84765625 C118.41606018 346.07645447 118.42171997 345.30525269 118.42755127 344.51068115 C118.4498895 342.05465846 118.50007776 339.6001107 118.55102539 337.14453125 C118.57109385 335.47658362 118.58934402 333.80861304 118.60571289 332.140625 C118.64974547 328.05802802 118.71875256 323.97652944 118.80102539 319.89453125 C117.63422241 320.05272339 117.63422241 320.05272339 116.44384766 320.21411133 C108.58127802 321.27765011 100.71673621 322.3250428 92.8503418 323.35986328 C90.30509936 323.69495965 87.76069841 324.03497043 85.21655273 324.37841797 C81.99608679 324.81186078 78.77398886 325.23012467 75.55102539 325.64453125 C74.16572632 325.83559448 74.16572632 325.83559448 72.75244141 326.03051758 C54.8930758 328.26901689 37.41019791 326.21155604 19.65014648 324.08056641 C17.05962204 323.77751834 14.46899175 323.47537394 11.87826538 323.17405701 C5.61650016 322.44407153 -0.64391649 321.70310326 -6.90392323 320.95820452 C-14.20676789 320.08963278 -21.51089893 319.23212021 -28.81508951 318.37495355 C-41.84787916 316.84513358 -54.87946535 315.30529637 -67.91040039 313.75976562 C-80.53646678 312.26226209 -93.1633742 310.77212509 -105.79125977 309.29003906 C-106.57057435 309.19857301 -107.34988893 309.10710695 -108.15281911 309.01286919 C-108.93083196 308.92155639 -109.7088448 308.83024359 -110.51043379 308.73616374 C-124.92648667 307.0441378 -139.34172113 305.34522835 -153.75658704 303.64312191 C-158.84140234 303.04286561 -163.92645449 302.44464238 -169.01158524 301.84706497 C-175.85281563 301.04296748 -182.69333257 300.23301253 -189.53341293 299.41919136 C-192.04221834 299.12151338 -194.55123368 298.82559859 -197.06047058 298.53157997 C-200.48610918 298.12986523 -203.91092218 297.72171846 -207.33560181 297.31192017 C-208.32723127 297.19712645 -209.31886073 297.08233274 -210.34053957 296.96406043 C-220.59771448 295.72172612 -228.92302017 294.16360653 -235.85913086 285.921875 C-251.13872978 264.38975478 -252.14971482 233.28361089 -248.48022461 207.85546875 C-246.50513614 197.00874018 -243.07674562 186.84290961 -236.57397461 177.89453125 C-234.56644111 174.72527786 -234.04330623 173.59961744 -234.86303711 169.88671875 C-236.18179844 166.80960897 -237.65598783 163.86436603 -239.19897461 160.89453125 C-244.99040083 145.41133055 -242.76404386 126.02997912 -237.19897461 110.89453125 C-236.452031 109.51519129 -235.66815288 108.15410028 -234.82397461 106.83203125 C-234.28772461 105.86265625 -233.75147461 104.89328125 -233.19897461 103.89453125 C-233.92070787 101.47775696 -233.92070787 101.47775696 -235.19897461 98.89453125 C-242.93363094 80.87179038 -244.90169051 60.67256802 -238.19897461 41.89453125 C-235.36409266 34.86333467 -232.24340878 27.53459203 -225.19897461 23.89453125 C-219.96080228 22.45586463 -214.81246487 21.45707544 -209.41499329 20.82554626 C-208.30368893 20.68928411 -208.30368893 20.68928411 -207.16993397 20.55026919 C-204.71052808 20.24996186 -202.25031808 19.95687947 -199.79003906 19.66381836 C-198.01681913 19.44882834 -196.24365252 19.23339818 -194.47053528 19.01756287 C-189.66919196 18.43444984 -184.86710507 17.85768964 -180.06483865 17.28223491 C-175.02566784 16.67745054 -169.98714494 16.0673132 -164.9485321 15.457901 C-156.48303329 14.43483105 -148.0170634 13.41573601 -139.55078125 12.39916992 C-129.78801133 11.22689814 -120.02591859 10.04911842 -110.26419288 8.86818498 C-100.84912018 7.72925599 -91.43366143 6.59355202 -82.01799583 5.4595356 C-78.02342002 4.97841832 -74.0289643 4.49632119 -70.03460121 4.01344109 C-65.31941168 3.44362047 -60.60388369 2.87668316 -55.88809013 2.31188393 C-54.16637905 2.10524627 -52.44477871 1.89768321 -50.72330475 1.68907928 C-33.63110827 -0.38087153 -17.1847794 -1.79784264 0 0 Z M-34.53198242 17.07202148 C-35.59377716 17.19721161 -36.6555719 17.32240173 -37.74954224 17.4513855 C-41.21788967 17.86198417 -44.68496042 18.28245645 -48.15209961 18.703125 C-50.5819387 18.99279894 -53.01185135 19.28185637 -55.4418335 19.57032776 C-61.81146557 20.32818362 -68.18005493 21.09447562 -74.54846191 21.86254883 C-81.02509296 22.64210389 -87.50270475 23.4134186 -93.98022461 24.18554688 C-103.44850929 25.31533941 -112.91640663 26.44828524 -122.38354492 27.58764648 C-123.36451141 27.70561081 -124.34547791 27.82357513 -125.35617065 27.94511414 C-130.63883087 28.5816378 -135.9197433 29.23015616 -141.19897461 29.89453125 C-140.86897461 30.55453125 -140.53897461 31.21453125 -140.19897461 31.89453125 C-137.8089202 32.3645061 -135.50254438 32.70028973 -133.08714294 32.97024536 C-132.33395328 33.06179236 -131.58076362 33.15333936 -130.80475003 33.24766052 C-128.2619245 33.55436827 -125.71772846 33.84767627 -123.17333984 34.14111328 C-121.35671945 34.35738227 -119.54019302 34.57444185 -117.72375488 34.79223633 C-112.77142255 35.38348052 -107.81776954 35.9628834 -102.86374545 36.53975916 C-97.67487114 37.14545736 -92.48706692 37.76019766 -87.29908752 38.37350464 C-78.56930817 39.40396889 -69.83863368 40.42657385 -61.10742188 41.44482422 C-51.0435994 42.61860458 -40.98140614 43.80562903 -30.9199757 44.99972641 C-22.27174765 46.02574356 -13.62267853 47.04443084 -4.97288281 48.05714691 C0.18796462 48.66138477 5.34849197 49.26806086 10.50827217 49.88135147 C15.37539624 50.45944324 20.24352286 51.02824766 25.11252594 51.59028625 C26.8880583 51.79670867 28.66323748 52.00619892 30.437994 52.21918869 C45.57222924 54.03212274 60.07883596 54.54494223 75.26586914 52.609375 C76.96649506 52.40455002 76.96649506 52.40455002 78.70147705 52.19558716 C82.38165948 51.75010125 86.06003093 51.29122778 89.73852539 50.83203125 C92.3163043 50.51731162 94.89418715 50.20344228 97.47216797 49.89038086 C103.52157039 49.15370628 109.56987441 48.40858037 115.61771107 47.65917492 C122.51423565 46.80509846 129.41210027 45.96209533 136.3100872 45.11992455 C150.47523434 43.39026412 164.63868451 41.64701346 178.80102539 39.89453125 C178.47102539 39.23453125 178.14102539 38.57453125 177.80102539 37.89453125 C174.76653202 37.25125731 174.76653202 37.25125731 170.9972229 36.86351013 C170.27725738 36.77675225 169.55729186 36.68999436 168.8155092 36.60060745 C166.38537252 36.3100873 163.95389299 36.03293196 161.5222168 35.75561523 C159.78615098 35.55084188 158.05018079 35.34525644 156.31430054 35.13891602 C151.58332191 34.57894766 146.85106628 34.03053137 142.11850023 33.484164 C137.16608228 32.91052981 132.21487302 32.32664731 127.26351929 31.74391174 C118.93639191 30.76532878 110.60849869 29.79350819 102.2800293 28.82641602 C90.56074839 27.46557475 78.84291034 26.09262255 67.12533307 24.71720016 C58.0096953 23.64764067 48.89367502 22.58134681 39.77758789 21.515625 C38.80382973 21.40175784 37.83007157 21.28789068 36.82680559 21.170573 C31.20688452 20.51361741 25.58677229 19.85833839 19.96637344 19.20548248 C18.26807751 19.00802893 16.56983447 18.81011977 14.8716507 18.61170387 C9.84960735 18.02517846 4.82645154 17.45138541 -0.19897461 16.89453125 C-1.22420856 16.78038439 -2.24944252 16.66623753 -3.30574417 16.54863167 C-13.82846561 15.47508494 -24.04729565 15.77889601 -34.53198242 17.07202148 Z M-218.19897461 39.89453125 C-219.12709961 41.62703125 -219.12709961 41.62703125 -220.07397461 43.39453125 C-220.42202148 44.04421875 -220.77006836 44.69390625 -221.12866211 45.36328125 C-224.09382977 52.37579454 -224.58700236 59.05850702 -224.57397461 66.58203125 C-224.57236328 67.54866699 -224.57075195 68.51530273 -224.5690918 69.51123047 C-224.42565039 77.91661571 -223.63075857 86.12633142 -218.57397461 93.15234375 C-215.24850844 95.59174821 -211.94062888 95.81131489 -207.94897461 96.14453125 C-207.22323242 96.221875 -206.49749023 96.29921875 -205.74975586 96.37890625 C-200.88350371 96.86466404 -196.08747113 96.96089093 -191.19897461 96.89453125 C-191.26826172 96.33725342 -191.33754883 95.77997559 -191.40893555 95.20581055 C-193.34395831 78.10909254 -194.03269023 59.55358688 -189.19897461 42.89453125 C-198.96048866 41.01521172 -208.24994368 39.73661012 -218.19897461 39.89453125 Z M-172.19897461 44.89453125 C-178.37250242 63.01311752 -179.19091863 81.77903991 -172.19897461 99.89453125 C-166.91897461 100.55453125 -161.63897461 101.21453125 -156.19897461 101.89453125 C-156.20944824 100.70899658 -156.21992188 99.52346191 -156.23071289 98.30200195 C-156.26697203 93.89448071 -156.28989665 89.4869726 -156.30883789 85.0793457 C-156.31888198 83.17339865 -156.33251977 81.26746696 -156.34985352 79.36157227 C-156.37417179 76.61861373 -156.38547373 73.87585934 -156.39428711 71.1328125 C-156.40460968 70.28366776 -156.41493225 69.43452301 -156.42556763 68.55964661 C-156.42637814 64.26485364 -156.35670052 60.74369083 -154.19897461 56.89453125 C-151.08347589 55.33678189 -147.59453581 55.32972503 -144.19897461 55.89453125 C-142.60327148 56.95605469 -142.60327148 56.95605469 -141.19897461 58.89453125 C-140.89119689 61.4197715 -140.75799024 63.7112488 -140.75756836 66.23828125 C-140.7443605 66.96261353 -140.73115265 67.6869458 -140.71754456 68.43322754 C-140.67666815 70.75369957 -140.65502712 73.07378134 -140.63647461 75.39453125 C-140.61247781 77.68658928 -140.58391118 79.97829118 -140.54469299 82.2701416 C-140.52086608 83.69376317 -140.50558068 85.11756799 -140.50108337 86.54138184 C-140.41118917 92.45564712 -139.36897815 98.10631729 -138.19897461 103.89453125 C-103.11115819 108.23147623 -68.00809891 112.43193229 -32.89536583 116.56204057 C-27.46009336 117.20156882 -22.02513584 117.84374528 -16.5902316 118.48639429 C-10.62044386 119.19216024 -4.65035896 119.8953785 1.3198452 120.59761429 C3.8258156 120.89271119 6.33169793 121.18855708 8.83748817 121.4851799 C12.29163297 121.8938415 15.74610729 122.29959449 19.20068359 122.70458984 C20.22205917 122.82607391 21.24343475 122.94755798 22.29576111 123.07272339 C23.23173126 123.18185059 24.16770142 123.29097778 25.1320343 123.40341187 C25.94225194 123.49885977 26.75246958 123.59430767 27.58723927 123.69264793 C29.65103043 123.88085266 31.72867045 123.89453125 33.80102539 123.89453125 C33.66100098 123.18200195 33.52097656 122.46947266 33.37670898 121.73535156 C31.95672507 113.98884341 31.43512077 106.51203289 31.42602539 98.64453125 C31.4015332 97.54496094 31.37704102 96.44539063 31.35180664 95.3125 C31.328839 88.70547545 32.14401631 82.80417677 33.82983398 76.45410156 C34.01853561 75.72277008 34.20723724 74.9914386 34.4016571 74.23794556 C34.86246887 72.45533883 35.33094746 70.67471691 35.80102539 68.89453125 C-3.19760994 64.21643573 -42.19738768 59.54795448 -81.19897461 54.89453125 C-82.97517685 54.68259125 -82.97517685 54.68259125 -84.78726196 54.46636963 C-98.24236346 52.86111846 -111.69798615 51.2603751 -125.1546936 49.66864014 C-128.80036977 49.23731074 -132.44584488 48.80433759 -136.09115601 48.36993408 C-140.32827567 47.86509287 -144.56577528 47.36357915 -148.80361176 46.86479187 C-150.33070658 46.68450863 -151.85766454 46.50306146 -153.38446808 46.32032776 C-155.44653572 46.07373928 -157.50906756 45.83148108 -159.57177734 45.59033203 C-160.71557358 45.45490997 -161.85936981 45.31948792 -163.03782654 45.17996216 C-166.11161581 44.90241918 -169.11466383 44.84265983 -172.19897461 44.89453125 Z M223.78553772 50.65139771 C223.06709149 50.73291891 222.34864527 50.81444011 221.60842794 50.89843166 C219.19464117 51.17289015 216.78115708 51.44991978 214.36767578 51.72705078 C212.63976379 51.92428439 210.91184304 52.12144136 209.18391418 52.31852722 C193.42603782 54.11911045 177.67209074 55.95395777 161.91922855 57.79783821 C151.32563933 59.03728745 140.73105719 60.26637879 130.13330078 61.46972656 C120.88814643 62.51949337 111.64542644 63.5882492 102.40516847 64.68030822 C97.51381521 65.25775631 92.62177696 65.8256856 87.72673225 66.37103653 C83.12323755 66.88426551 78.52344571 67.42296002 73.92523003 67.98145485 C72.23644376 68.18200893 70.54651772 68.37321761 68.85554504 68.55441475 C66.5477236 68.80312836 64.24635336 69.08509009 61.9434967 69.37576294 C60.65319581 69.5250934 59.36289492 69.67442387 58.033494 69.8282795 C53.82990553 71.21486174 52.83635513 73.05507453 50.80102539 76.89453125 C47.69646114 83.98542947 47.289309 91.12220085 47.36352539 98.76953125 C47.36819824 99.82293701 47.37287109 100.87634277 47.37768555 101.96166992 C47.54792919 110.90638158 48.75199941 118.32099228 53.80102539 125.89453125 C62.22340709 126.59758043 70.69930654 125.09487957 79.05761719 124.07446289 C80.69445482 123.87859134 82.33134812 123.68318458 83.96829224 123.48820496 C88.39216249 122.95990552 92.81521607 122.42503881 97.23813987 121.88888097 C101.87534647 121.32781447 106.51325264 120.77258984 111.15107727 120.21665955 C118.93464221 119.28281614 126.71772504 118.34504145 134.50048828 117.40454102 C144.48383796 116.19812795 154.46791828 114.99787892 164.45225811 113.7996912 C173.04840088 112.76808217 181.64424787 111.73401679 190.24002481 110.69936442 C192.99799952 110.36745763 195.75600597 110.03581547 198.51401329 109.70417976 C202.84883889 109.18274884 207.18347832 108.65979536 211.51797867 108.1356678 C213.10700338 107.94372327 214.69608347 107.75223654 216.28522301 107.56124496 C218.45700402 107.3001329 220.62857252 107.03731868 222.8000946 106.77406311 C224.01438991 106.62749803 225.22868521 106.48093294 226.47977734 106.32992649 C229.60187151 105.9206391 232.69891706 105.43328649 235.80102539 104.89453125 C235.36790039 103.63189453 235.36790039 103.63189453 234.92602539 102.34375 C232.19367751 93.20746177 231.41554037 84.68393547 231.42602539 75.14453125 C231.42473633 74.02135498 231.42344727 72.89817871 231.42211914 71.7409668 C231.51815751 64.29635642 232.36593789 57.19712838 233.80102539 49.89453125 C230.405672 49.89453125 227.16077571 50.26657612 223.78553772 50.65139771 Z M-218.19897461 111.89453125 C-218.48659668 112.44101318 -218.77421875 112.98749512 -219.07055664 113.55053711 C-219.7565918 114.85400391 -220.44262695 116.1574707 -221.12866211 117.4609375 C-224.16189713 124.35767261 -224.58617341 130.55081837 -224.57397461 138.01953125 C-224.57236328 139.03764893 -224.57075195 140.0557666 -224.5690918 141.10473633 C-224.43400846 149.42361833 -223.98153603 158.2476277 -218.50680828 164.9733696 C-215.60975044 167.38503232 -213.7353951 167.62379046 -210.00801086 168.05889893 C-208.10084541 168.29432907 -208.10084541 168.29432907 -206.15515137 168.53451538 C-204.74832758 168.69033293 -203.34146589 168.84580852 -201.93457031 169.00097656 C-200.45088852 169.17742604 -198.96738642 169.35539205 -197.48405457 169.53475952 C-193.45662583 170.01725766 -189.42698113 170.47808964 -185.39656091 170.93483067 C-181.17396624 171.41677545 -176.95361387 171.91762902 -172.73295593 172.41619873 C-165.64001579 173.25130947 -158.54566736 174.07341408 -151.45019531 174.88671875 C-142.36018175 175.92870324 -133.27272466 176.99144236 -124.18592548 178.06105423 C-116.35852842 178.98230304 -108.53007751 179.8944747 -100.70141959 180.80493832 C-98.19354169 181.09692441 -95.6857975 181.39003931 -93.17806435 181.68326569 C-89.22489399 182.14487095 -85.27110669 182.60080568 -81.31678963 183.05247879 C-79.8706734 183.21841834 -78.42475194 183.38606608 -76.9790535 183.55560684 C-69.67707555 184.41063644 -62.55345228 185.09921806 -55.19897461 184.89453125 C-55.26826172 184.26434082 -55.33754883 183.63415039 -55.40893555 182.98486328 C-56.19398017 175.23918284 -56.41560984 167.551863 -56.44897461 159.76953125 C-56.47991211 157.95388672 -56.47991211 157.95388672 -56.51147461 156.1015625 C-56.54071659 149.38321839 -56.43403432 142.95417671 -53.19897461 136.89453125 C-50.08347589 135.33678189 -46.59453581 135.32972503 -43.19897461 135.89453125 C-41.46069336 137.17578125 -41.46069336 137.17578125 -40.19897461 138.89453125 C-39.91767922 143.11396211 -40.12631377 147.08408346 -40.50366211 151.29296875 C-41.43291783 162.10406574 -42.3660667 177.27012995 -36.19897461 186.89453125 C-31.31779473 189.28726648 -26.52547957 189.08142616 -21.19897461 188.89453125 C-21.35978516 187.88406738 -21.5205957 186.87360352 -21.6862793 185.83251953 C-22.42426429 180.16409198 -22.42295595 174.54616863 -22.43920898 168.8359375 C-22.44885355 166.79514829 -22.47991461 164.75539503 -22.51147461 162.71484375 C-22.57188818 154.98682456 -21.85537393 147.95450609 -19.84643555 140.47314453 C-19.07720991 137.85269384 -19.07720991 137.85269384 -19.19897461 134.89453125 C-28.64839692 132.98454581 -38.17000493 131.85639423 -47.73657227 130.73974609 C-49.48714995 130.53283999 -51.23769326 130.32564298 -52.98820496 130.11817932 C-57.71282647 129.55920598 -62.43795751 129.00466088 -67.16323137 128.45123243 C-71.11725529 127.98775857 -75.07103155 127.5221906 -79.02481401 127.0566622 C-88.35332349 125.95837303 -97.68226205 124.863784 -107.01147461 123.77148438 C-116.62050422 122.64635378 -126.22876502 121.51482287 -135.83667529 120.3801769 C-144.10489381 119.40397932 -152.37358118 118.43182667 -160.64265287 117.46288264 C-165.57323052 116.8850878 -170.50361626 116.3057657 -175.43355179 115.72251511 C-180.06728923 115.17447958 -184.70159338 114.63151217 -189.33637428 114.0923748 C-191.03245192 113.89423317 -192.72832507 113.6943317 -194.42396736 113.4924984 C-206.27489909 112.08260577 -206.27489909 112.08260577 -218.19897461 111.89453125 Z M223.78553772 122.65139771 C223.06709149 122.73291891 222.34864527 122.81444011 221.60842794 122.89843166 C219.19464117 123.17289015 216.78115708 123.44991978 214.36767578 123.72705078 C212.63976379 123.92428439 210.91184304 124.12144136 209.18391418 124.31852722 C193.42603782 126.11911045 177.67209074 127.95395777 161.91922855 129.79783821 C151.32563933 131.03728745 140.73105719 132.26637879 130.13330078 133.46972656 C120.88814643 134.51949337 111.64542644 135.5882492 102.40516847 136.68030822 C97.51381521 137.25775631 92.62177696 137.8256856 87.72673225 138.37103653 C83.12323755 138.88426551 78.52344571 139.42296002 73.92523003 139.98145485 C72.23644376 140.18200893 70.54651772 140.37321761 68.85554504 140.55441475 C66.5477236 140.80312836 64.24635336 141.08509009 61.9434967 141.37576294 C60.65319581 141.5250934 59.36289492 141.67442387 58.033494 141.8282795 C53.82990553 143.21486174 52.83635513 145.05507453 50.80102539 148.89453125 C47.69646114 155.98542947 47.289309 163.12220085 47.36352539 170.76953125 C47.36819824 171.82293701 47.37287109 172.87634277 47.37768555 173.96166992 C47.54792919 182.90638158 48.75199941 190.32099228 53.80102539 197.89453125 C62.22340709 198.59758043 70.69930654 197.09487957 79.05761719 196.07446289 C80.69445482 195.87859134 82.33134812 195.68318458 83.96829224 195.48820496 C88.39216249 194.95990552 92.81521607 194.42503881 97.23813987 193.88888097 C101.87534647 193.32781447 106.51325264 192.77258984 111.15107727 192.21665955 C118.93464221 191.28281614 126.71772504 190.34504145 134.50048828 189.40454102 C144.48383796 188.19812795 154.46791828 186.99787892 164.45225811 185.7996912 C173.04840088 184.76808217 181.64424787 183.73401679 190.24002481 182.69936442 C192.99799952 182.36745763 195.75600597 182.03581547 198.51401329 181.70417976 C202.84883889 181.18274884 207.18347832 180.65979536 211.51797867 180.1356678 C213.10700338 179.94372327 214.69608347 179.75223654 216.28522301 179.56124496 C218.45700402 179.3001329 220.62857252 179.03731868 222.8000946 178.77406311 C224.01438991 178.62749803 225.22868521 178.48093294 226.47977734 178.32992649 C229.60187151 177.9206391 232.69891706 177.43328649 235.80102539 176.89453125 C235.51227539 175.96898437 235.22352539 175.0434375 234.92602539 174.08984375 C232.29754129 164.89014939 231.41504468 156.15035014 231.42602539 146.58203125 C231.42473633 145.51033691 231.42344727 144.43864258 231.42211914 143.33447266 C231.52084998 136.03175636 232.40580433 129.05928842 233.80102539 121.89453125 C230.405672 121.89453125 227.16077571 122.26657612 223.78553772 122.65139771 Z M-1.19897461 136.89453125 C-5.79921951 148.03784293 -7.53873918 158.45015763 -7.01147461 170.45703125 C-6.98158447 171.21177734 -6.95169434 171.96652344 -6.92089844 172.74414062 C-6.51611911 179.3392887 -4.93941694 185.53592572 -3.19897461 191.89453125 C1.42711621 192.46727084 6.05358164 193.03684599 10.68041992 193.60351562 C12.25376867 193.79665998 13.8270123 193.99066266 15.40014648 194.18554688 C17.66370875 194.46581106 19.92763334 194.74296794 22.19165039 195.01953125 C22.89283997 195.10702637 23.59402954 195.19452148 24.31646729 195.28466797 C27.519605 195.67310471 30.56614392 195.89453125 33.80102539 195.89453125 C33.66100098 195.18200195 33.52097656 194.46947266 33.37670898 193.73535156 C31.95741326 185.99259771 31.41699841 178.50984888 31.42602539 170.64453125 C31.4240918 168.88532349 31.4240918 168.88532349 31.42211914 167.09057617 C31.53521079 157.76372803 32.94287305 149.7425136 35.80102539 140.89453125 C31.33578648 140.32088136 26.87004766 139.75134426 22.40380859 139.18554688 C20.8857623 138.9926558 19.36785615 138.79865834 17.85009766 138.60351562 C15.66353027 138.32258006 13.47648323 138.04567891 11.28930664 137.76953125 C10.61515213 137.68203613 9.94099762 137.59454102 9.24641418 137.50439453 C5.74143609 137.06601386 2.33343514 136.79946219 -1.19897461 136.89453125 Z M-222.01147461 186.14453125 C-230.79162011 199.42333787 -232.71800426 215.37133564 -232.57397461 230.89453125 C-232.58557617 232.14492188 -232.59717773 233.3953125 -232.60913086 234.68359375 C-232.56311027 249.50222419 -230.15414127 266.93936458 -219.19897461 277.89453125 C-216.23740501 279.37531605 -213.36391166 279.24767162 -210.07397461 279.45703125 C-208.15198242 279.58271484 -208.15198242 279.58271484 -206.19116211 279.7109375 C-205.20374023 279.77152344 -204.21631836 279.83210938 -203.19897461 279.89453125 C-203.47612305 278.68796875 -203.75327148 277.48140625 -204.03881836 276.23828125 C-204.40490538 274.62374362 -204.77077944 273.00915768 -205.13647461 271.39453125 C-205.31887695 270.60304688 -205.5012793 269.8115625 -205.68920898 268.99609375 C-205.86645508 268.20976562 -206.04370117 267.4234375 -206.22631836 266.61328125 C-206.46983032 265.5449707 -206.46983032 265.5449707 -206.71826172 264.45507812 C-208.42016076 255.38980786 -208.48209255 246.33605822 -208.51147461 237.14453125 C-208.51409302 236.36374207 -208.51671143 235.58295288 -208.51940918 234.77850342 C-208.52385032 222.41595706 -207.6471833 210.8301932 -204.19897461 198.89453125 C-204.0069043 198.21165039 -203.81483398 197.52876953 -203.61694336 196.82519531 C-202.57006738 193.14866657 -201.43938408 189.51019289 -200.19897461 185.89453125 C-202.30774547 183.78576039 -206.31692155 184.14883005 -209.19897461 183.89453125 C-210.04975586 183.80429687 -210.90053711 183.7140625 -211.77709961 183.62109375 C-216.26270204 183.33906485 -218.41525326 183.26755417 -222.01147461 186.14453125 Z M-182.19897461 187.89453125 C-189.59699164 203.86752257 -192.94757251 218.71761274 -192.69897461 236.33203125 C-192.69410034 237.09256805 -192.68922607 237.85310486 -192.6842041 238.63668823 C-192.7651935 262.21501964 -192.7651935 262.21501964 -183.19897461 282.89453125 C-181.18302879 283.12880903 -179.16050061 283.30789249 -177.13647461 283.45703125 C-175.47938477 283.58271484 -175.47938477 283.58271484 -173.78881836 283.7109375 C-172.93416992 283.77152344 -172.07952148 283.83210938 -171.19897461 283.89453125 C-171.35043945 283.32573242 -171.5019043 282.75693359 -171.65795898 282.17089844 C-179.1087661 253.06689958 -179.39101755 221.4083094 -168.93334961 193.01171875 C-168.08973821 190.9530942 -168.08973821 190.9530942 -168.19897461 188.89453125 C-175.12897461 188.39953125 -175.12897461 188.39953125 -182.19897461 187.89453125 Z M-150.19897461 191.89453125 C-157.72673696 207.72792472 -160.94604123 222.8261117 -160.69897461 240.33203125 C-160.69410034 241.09256805 -160.68922607 241.85310486 -160.6842041 242.63668823 C-160.56860096 258.04040272 -158.67335485 271.7680763 -152.19897461 285.89453125 C-138.37342141 287.9265662 -124.53957336 289.7559016 -110.65991211 291.375 C-108.79137103 291.59473647 -106.92285137 291.8146551 -105.05435181 292.03474426 C-101.19096642 292.48924457 -97.32738044 292.94198389 -93.46362305 293.39331055 C-88.5104496 293.97198263 -83.55775184 294.55461889 -78.60518456 295.13845348 C-74.77073604 295.59015312 -70.93608617 296.04012305 -67.10136795 296.48952675 C-65.27283925 296.7039695 -63.44436527 296.91887935 -61.61594772 297.13426781 C-59.08050703 297.43262017 -56.54481318 297.72871697 -54.0090332 298.02416992 C-53.2579982 298.11296417 -52.5069632 298.20175842 -51.73316956 298.29324341 C-48.86733501 298.62519991 -46.08701389 298.89453125 -43.19897461 298.89453125 C-43.46912394 297.39440791 -43.7401666 295.89444547 -44.01147461 294.39453125 C-44.27226807 292.92693359 -44.27226807 292.92693359 -44.53833008 291.4296875 C-44.97580305 289.08873828 -45.44866397 286.7541038 -45.95800781 284.42773438 C-48.01999212 274.6563576 -48.6682437 265.30694188 -48.59008789 255.33105469 C-48.57398376 252.89591506 -48.59005321 250.46243415 -48.60913086 248.02734375 C-48.63299533 232.52873843 -45.52327411 218.72255311 -41.19897461 203.89453125 C-54.0811566 202.32360916 -66.96402944 200.75849208 -79.84780788 199.20071411 C-85.83069093 198.47714003 -91.81332081 197.75159357 -97.79541016 197.02148438 C-103.57200426 196.31653025 -109.34921293 195.61682934 -115.12687874 194.92071533 C-117.32741899 194.6546601 -119.52773409 194.38673556 -121.72781181 194.11688232 C-124.8171461 193.73828514 -127.90722521 193.36643474 -130.99755859 192.99609375 C-131.90027496 192.88388489 -132.80299133 192.77167603 -133.73306274 192.65606689 C-139.26295317 192.00209588 -144.63003333 191.79526462 -150.19897461 191.89453125 Z M215.62168884 195.62016296 C214.93390447 195.69830618 214.24612009 195.7764494 213.53749377 195.85696059 C211.25109644 196.11781473 208.96540897 196.38441646 206.6796875 196.65112305 C205.03327159 196.84033847 203.38682189 197.02926005 201.74034119 197.21791077 C196.35228999 197.83698101 190.96528191 198.46486183 185.57836914 199.09375 C183.72022632 199.31033199 181.86208283 199.52690823 180.00393867 199.74347878 C172.27670711 200.64481819 164.54976398 201.54857017 156.82353878 202.45849895 C145.76397772 203.7608902 134.70295913 205.04892158 123.6394214 206.31710309 C115.85065299 207.21108088 108.06387736 208.12123052 100.27840048 209.04342967 C95.63152112 209.59343078 90.98406763 210.1363244 86.33436394 210.66196251 C81.96294052 211.15650814 77.59433333 211.67105321 73.22706032 212.20096397 C71.62594628 212.39172409 70.02395399 212.57527487 68.42111969 212.75099564 C66.22902222 212.99243947 64.04160333 213.25992665 61.8533783 213.53398132 C60.62911101 213.67685924 59.40484373 213.81973715 58.14347744 213.96694469 C53.15683545 215.35082156 50.01275003 217.96419076 47.22680664 222.40234375 C41.53798559 235.77606342 39.60769536 247.91535405 39.55102539 262.39453125 C39.53040039 263.68101562 39.50977539 264.9675 39.48852539 266.29296875 C39.43080226 280.63716675 41.9215937 295.444366 49.98852539 307.64453125 C54.67681232 311.39516079 60.08209208 310.14405138 65.85772705 309.61401367 C69.25294073 309.23215433 72.63970163 308.80539565 76.02758789 308.36328125 C77.25641693 308.20790894 78.48524597 308.05253662 79.75131226 307.89245605 C83.64364976 307.39896387 87.53482283 306.89688603 91.42602539 306.39453125 C94.07820911 306.05602182 96.73063756 305.71947702 99.38305664 305.3828125 C105.85672149 304.56095261 112.32873855 303.72747164 118.80102539 302.89453125 C118.80102539 287.38453125 118.80102539 271.87453125 118.80102539 255.89453125 C115.83102539 255.23453125 112.86102539 254.57453125 109.80102539 253.89453125 C108.49622059 246.89603275 108.49622059 246.89603275 109.67602539 243.01953125 C115.02443926 237.67111738 126.72627502 238.03820687 133.94555664 237.16796875 C135.19173264 237.01542633 136.43790863 236.86288391 137.72184753 236.70571899 C140.34800797 236.38581602 142.97432004 236.06784965 145.60107422 235.75292969 C148.27135374 235.43242461 150.94088212 235.10653277 153.60986328 234.77539062 C157.49173119 234.29467581 161.37467561 233.82378584 165.25805664 233.35546875 C166.43656693 233.2086264 167.61507721 233.06178406 168.82929993 232.91049194 C189.01693742 230.52473497 189.01693742 230.52473497 192.58406067 233.26351929 C194.25086135 235.49741466 194.60273528 237.11846968 194.80102539 239.89453125 C194.05314695 242.81805607 193.5288843 244.37463203 191.05102539 246.14453125 C188.80102539 246.89453125 188.80102539 246.89453125 182.80102539 247.89453125 C182.80102539 263.40453125 182.80102539 278.91453125 182.80102539 294.89453125 C193.50256054 294.08064103 193.50256054 294.08064103 204.14868164 292.95703125 C204.85327011 292.87203369 205.55785858 292.78703613 206.28379822 292.69946289 C207.74307794 292.52270469 209.20219173 292.34457091 210.66113281 292.16503906 C212.8915314 291.89109143 215.12258633 291.62302471 217.35375977 291.35546875 C218.78544235 291.18133425 220.21708459 291.00686762 221.64868164 290.83203125 C222.92751221 290.67605469 224.20634277 290.52007812 225.52392578 290.359375 C228.02823754 290.00414818 230.37410265 289.58434045 232.80102539 288.89453125 C232.40915039 287.76015625 232.01727539 286.62578125 231.61352539 285.45703125 C231.0046782 283.60439624 230.4013735 281.74993782 229.80102539 279.89453125 C229.39110352 278.64542969 228.98118164 277.39632812 228.55883789 276.109375 C221.21495434 253.04887109 221.07192843 229.35406404 227.27709961 205.93798828 C228.21518083 202.27920924 229.00162574 198.58567225 229.80102539 194.89453125 C225.00623516 194.82326528 220.38419191 195.07185799 215.62168884 195.62016296 Z M-23.19897461 205.89453125 C-28.97713426 218.57438159 -32.74670021 231.89368899 -33.19897461 245.89453125 C-33.23893555 247.01859375 -33.27889648 248.14265625 -33.32006836 249.30078125 C-33.64311734 267.39152432 -30.98817486 284.40219791 -23.19897461 300.89453125 C-20.63003623 302.17900044 -18.43321124 302.22430269 -15.57397461 302.45703125 C-14.06963867 302.58271484 -14.06963867 302.58271484 -12.53491211 302.7109375 C-11.76405273 302.77152344 -10.99319336 302.83210938 -10.19897461 302.89453125 C-10.34520264 302.2897998 -10.49143066 301.68506836 -10.64208984 301.06201172 C-11.30905703 298.29837063 -11.97279164 295.53396279 -12.63647461 292.76953125 C-12.86657227 291.81820312 -13.09666992 290.866875 -13.33374023 289.88671875 C-13.55610352 288.95859375 -13.7784668 288.03046875 -14.00756836 287.07421875 C-14.31392212 285.80167236 -14.31392212 285.80167236 -14.62646484 284.50341797 C-15.89747646 278.71150746 -16.36957355 273.24763969 -16.40209961 267.33984375 C-16.40779968 266.52063446 -16.41349976 265.70142517 -16.41937256 264.85739136 C-16.42878963 263.12434158 -16.4353434 261.39127417 -16.43920898 259.65820312 C-16.44881684 257.06216161 -16.47982993 254.46694657 -16.51147461 251.87109375 C-16.59719427 238.3198591 -15.0891662 225.74171749 -10.74975586 212.8125 C-10.06096781 210.74653537 -10.06096781 210.74653537 -10.19897461 207.89453125 C-14.48897461 207.23453125 -18.77897461 206.57453125 -23.19897461 205.89453125 Z M7.80102539 209.89453125 C-2.38766301 239.30716004 -4.51364496 268.07242663 5.80102539 297.89453125 C6.00268311 298.55445068 6.20434082 299.21437012 6.41210938 299.89428711 C7.10432125 302.06483209 7.10432125 302.06483209 8.80102539 304.89453125 C11.66675726 306.17115651 11.66675726 306.17115651 14.98852539 306.33203125 C16.14094727 306.45191406 17.29336914 306.57179688 18.48071289 306.6953125 C22.28275251 306.92343488 25.99513146 307.04378199 29.80102539 306.89453125 C28.86023583 302.55053772 27.90454555 298.21882866 26.76586914 293.921875 C20.49890762 269.51888734 21.93465128 245.61156498 29.80102539 221.89453125 C30.07446777 221.06953125 30.34791016 220.24453125 30.62963867 219.39453125 C31.3506263 217.22691136 32.07441226 215.06027077 32.80102539 212.89453125 C29.38502392 212.389915 25.96812599 211.89164549 22.55102539 211.39453125 C21.09889648 211.17990234 21.09889648 211.17990234 19.61743164 210.9609375 C18.68286133 210.82558594 17.74829102 210.69023437 16.78540039 210.55078125 C15.9265625 210.42509766 15.06772461 210.29941406 14.18286133 210.16992188 C11.53838788 209.81796059 11.53838788 209.81796059 7.80102539 209.89453125 Z M151.36352539 251.33203125 C150.21819336 251.46673828 149.07286133 251.60144531 147.89282227 251.74023438 C146.79131836 251.87236328 145.68981445 252.00449219 144.55493164 252.140625 C143.04394897 252.32129517 143.04394897 252.32129517 141.50244141 252.50561523 C138.56215029 252.88212971 138.56215029 252.88212971 134.80102539 253.89453125 C134.80102539 275.67453125 134.80102539 297.45453125 134.80102539 319.89453125 C138.18033804 315.67039043 140.77594511 311.65866149 143.43383789 307.00390625 C144.80102539 304.89453125 144.80102539 304.89453125 146.80102539 303.89453125 C153.88632485 303.19761655 153.88632485 303.19761655 157.42602539 305.89453125 C159.87577352 308.98894994 162.26646374 312.11309349 164.56665039 315.3203125 C164.97399414 315.83980469 165.38133789 316.35929687 165.80102539 316.89453125 C166.13102539 316.89453125 166.46102539 316.89453125 166.80102539 316.89453125 C166.80102539 294.78453125 166.80102539 272.67453125 166.80102539 249.89453125 C161.62216656 249.89453125 156.50011609 250.71264426 151.36352539 251.33203125 Z " fill="#000000" transform="translate(249.198974609375,153.10546875)"/>
</svg>
